<svg viewBox="0 0 64 64" xmlns="http://www.w3.org/2000/svg">
  <defs>
    <linearGradient id="bg3" x1="0%" y1="0%" x2="100%" y2="100%">
      <stop offset="0%" stop-color="#3b0764"/>
      <stop offset="100%" stop-color="#1e0338"/>
    </linearGradient>
    <linearGradient id="chip3" x1="0%" y1="0%" x2="100%" y2="100%">
      <stop offset="0%" stop-color="#d4af37"/>
      <stop offset="100%" stop-color="#b8860b"/>
    </linearGradient>
  </defs>
  <rect width="64" height="64" rx="12" fill="url(#bg3)"/>
  <!-- Casino chip -->
  <circle cx="28" cy="33" r="20" fill="url(#chip3)"/>
  <circle cx="28" cy="33" r="16" fill="#3b0764"/>
  <circle cx="28" cy="33" r="12" fill="url(#chip3)"/>
  <!-- Chip notches -->
  <rect x="25" y="13" width="6" height="4" rx="1" fill="#3b0764"/>
  <rect x="25" y="49" width="6" height="4" rx="1" fill="#3b0764"/>
  <rect x="8" y="30" width="4" height="6" rx="1" fill="#3b0764"/>
  <rect x="44" y="30" width="4" height="6" rx="1" fill="#3b0764"/>
  <!-- K letter on chip -->
  <text x="28" y="38" font-family="Georgia, serif" font-size="14" font-weight="900" fill="#d4af37" text-anchor="middle">K</text>
  <!-- Open lock badge -->
  <circle cx="48" cy="18" r="11" fill="#7c3aed"/>
  <circle cx="48" cy="18" r="8" fill="#5b21b6"/>
  <!-- Open lock icon -->
  <path d="M44 19 L44 23 L52 23 L52 19 Z" fill="none" stroke="#a78bfa" stroke-width="1.5"/>
  <path d="M44 19 L44 17 Q44 13 48 13 Q51 13 51 16" fill="none" stroke="#a78bfa" stroke-width="1.5" stroke-linecap="round"/>
  <circle cx="48" cy="20.5" r="1.2" fill="#a78bfa"/>
</svg>
